<svg width="250" height="364" viewBox="0 0 250 364" fill="none" xmlns="http://www.w3.org/2000/svg">
<path d="M240.375 151.977C240.375 105.874 202.313 68.8843 155.674 68.8843C109.035 68.8843 70.9731 106.41 70.9731 151.977C70.9731 172.348 78.4793 191.111 90.8092 205.585C91.3452 206.121 91.345 206.121 91.8811 206.657L92.4164 207.193C92.9524 207.729 92.9535 207.729 93.4896 208.265C104.747 220.595 111.179 232.389 113.86 239.894C114.396 242.038 115.468 244.719 116.54 246.863V247.399C123.509 261.873 137.984 271.523 155.139 271.523C174.974 271.523 191.592 258.121 196.417 239.894C199.097 233.461 203.922 222.739 213.571 211.482C230.726 197.008 240.375 175.564 240.375 151.977Z" fill="#36A9E1"/>
<path d="M249.488 160.554C249.488 114.451 211.426 77.4619 164.787 77.4619C118.148 77.4619 80.0876 114.988 80.0876 160.554C80.0876 180.925 87.5925 199.688 99.9224 214.162C100.458 214.699 100.458 214.699 100.994 215.235L101.531 215.771C102.067 216.307 102.067 216.307 102.603 216.843C113.86 229.173 124.046 242.575 126.726 249.544C127.262 251.688 124.582 252.76 125.654 255.441V255.977C132.624 270.451 147.097 280.1 164.252 280.1C184.087 280.1 200.705 266.698 205.53 248.472C208.21 242.039 213.035 231.317 222.684 220.059C239.839 205.585 249.488 184.142 249.488 160.554Z" fill="white"/>
<path d="M156.211 274.204C139.592 274.204 123.51 264.555 116.005 250.081L115.468 249.009V248.473C114.396 246.328 113.324 244.184 112.788 241.503C109.571 233.998 103.674 222.741 92.9528 210.411L91.3443 208.266C90.8083 207.73 90.8085 207.194 90.2724 207.194C77.4065 192.184 69.9011 172.349 69.9011 152.514C69.9011 105.339 108.499 67.2773 156.211 67.2773C203.922 67.2773 242.519 105.339 242.519 152.514C242.519 175.566 233.406 197.545 216.251 213.627C207.138 224.349 202.313 234.534 199.632 241.503C194.272 260.266 176.582 274.204 156.211 274.204ZM119.22 246.864C126.189 261.338 140.664 269.916 156.211 269.916C174.973 269.916 191.055 257.586 195.88 239.895C198.56 232.926 203.921 222.205 213.571 210.411C230.189 194.864 238.766 173.957 238.766 151.978C238.766 106.947 201.777 70.4938 156.211 70.4938C110.644 70.4938 73.6534 106.947 73.6534 151.978C73.6534 171.277 80.623 189.504 92.9528 203.978C93.4889 204.514 93.4887 204.514 94.0247 205.05L95.6332 207.194C106.891 219.524 113.323 231.854 116.54 239.359C117.076 242.04 118.148 244.184 119.22 246.864Z" fill="#16110D"/>
<path d="M156.211 305.833C145.489 305.833 136.911 312.266 136.911 320.843C136.911 328.884 145.489 335.854 156.211 335.854C166.932 335.854 175.509 329.421 175.509 320.843C174.973 312.802 166.396 305.833 156.211 305.833ZM141.2 320.843C141.2 314.946 148.17 310.122 156.211 310.122C158.891 310.122 161.036 310.658 163.18 311.73C155.675 313.338 150.313 318.163 150.313 324.06C150.313 326.74 151.922 329.957 154.602 331.565C147.097 331.029 141.2 326.74 141.2 320.843Z" fill="#16110D"/>
<path d="M186.767 306.904C186.767 316.554 172.829 324.595 156.211 324.595C139.592 324.595 125.654 316.554 125.654 306.904C125.654 297.255 139.592 289.214 156.211 289.214C172.829 289.214 186.767 297.255 186.767 306.904Z" fill="#36A9E1"/>
<path d="M156.21 326.738C137.984 326.738 123.509 318.161 123.509 307.44C123.509 296.718 137.984 288.141 156.21 288.141C174.437 288.141 188.911 296.718 188.911 307.44C188.911 318.161 174.437 326.738 156.21 326.738ZM156.21 291.357C140.664 291.357 127.798 298.326 127.798 306.903C127.798 315.481 140.664 322.45 156.21 322.45C171.757 322.45 184.623 315.481 184.623 306.903C184.623 298.862 171.757 291.357 156.21 291.357Z" fill="#16110D"/>
<path d="M186.767 295.646C186.767 305.296 172.829 313.337 156.211 313.337C139.592 313.337 125.654 305.296 125.654 295.646C125.654 285.997 139.592 277.956 156.211 277.956C172.829 277.956 186.767 285.997 186.767 295.646Z" fill="#36A9E1"/>
<path d="M156.21 314.946C137.984 314.946 123.509 306.369 123.509 295.647C123.509 284.925 137.984 276.348 156.21 276.348C174.437 276.348 188.911 284.925 188.911 295.647C188.911 306.369 174.437 314.946 156.21 314.946ZM156.21 280.101C140.664 280.101 127.798 287.07 127.798 295.647C127.798 304.224 140.664 311.193 156.21 311.193C171.757 311.193 184.623 304.224 184.623 295.647C184.623 287.07 171.757 280.101 156.21 280.101Z" fill="#16110D"/>
<path d="M186.767 283.318C186.767 292.967 172.829 301.008 156.211 301.008C139.592 301.008 125.654 292.967 125.654 283.318C125.654 273.668 139.592 265.627 156.211 265.627C172.829 265.627 186.767 273.668 186.767 283.318Z" fill="#36A9E1"/>
<path d="M156.21 303.151C137.984 303.151 123.509 294.574 123.509 283.853C123.509 273.131 137.984 264.554 156.21 264.554C174.437 264.554 188.911 273.131 188.911 283.853C188.911 294.574 174.437 303.151 156.21 303.151ZM156.21 267.77C140.664 267.77 127.798 274.739 127.798 283.317C127.798 291.894 140.664 298.863 156.21 298.863C171.757 298.863 184.623 291.894 184.623 283.317C184.623 274.739 171.757 267.77 156.21 267.77Z" fill="#16110D"/>
<path d="M186.767 272.059C186.767 281.709 172.829 289.75 156.211 289.75C139.592 289.75 125.654 281.709 125.654 272.059C125.654 262.41 139.592 254.369 156.211 254.369C172.829 254.369 186.767 262.41 186.767 272.059Z" fill="#36A9E1"/>
<path d="M156.21 291.36C137.984 291.36 123.509 282.782 123.509 272.061C123.509 261.339 137.984 252.762 156.21 252.762C174.437 252.762 188.911 261.339 188.911 272.061C188.911 282.782 174.437 291.36 156.21 291.36ZM156.21 256.514C140.664 256.514 127.798 263.483 127.798 272.061C127.798 280.638 140.664 287.607 156.21 287.607C171.757 287.607 184.623 280.638 184.623 272.061C184.623 263.483 171.757 256.514 156.21 256.514Z" fill="#16110D"/>
<path d="M186.767 259.731C186.767 269.38 172.829 277.421 156.211 277.421C139.592 277.421 125.654 269.38 125.654 259.731C125.654 250.081 139.592 242.04 156.211 242.04C172.829 242.04 186.767 250.081 186.767 259.731Z" fill="#36A9E1"/>
<path d="M156.211 255.976C140.664 255.976 127.798 263.481 127.798 272.058C127.798 272.595 127.798 273.131 127.798 273.667C132.623 280.1 143.345 284.388 156.211 284.388C169.077 284.388 179.798 280.1 184.623 273.667C184.623 273.131 185.158 272.595 185.158 272.058C184.622 262.945 171.757 255.976 156.211 255.976Z" fill="white"/>
<path d="M156.21 279.565C137.984 279.565 123.509 270.987 123.509 260.266C123.509 249.544 137.984 240.967 156.21 240.967C174.437 240.967 188.911 249.544 188.911 260.266C188.911 270.987 174.437 279.565 156.21 279.565ZM156.21 244.183C140.664 244.183 127.798 251.152 127.798 259.73C127.798 268.307 140.664 275.276 156.21 275.276C171.757 275.276 184.623 268.307 184.623 259.73C184.623 251.688 171.757 244.183 156.21 244.183Z" fill="#16110D"/>
<path d="M165.324 205.587L159.427 201.834C179.798 170.205 182.478 160.556 182.478 157.875C181.406 158.411 180.335 158.411 179.263 158.948C174.974 160.556 168.005 163.772 158.891 163.236C150.314 163.236 143.88 160.02 139.592 158.411C138.52 157.875 136.912 157.339 136.376 156.803C135.84 158.948 135.304 167.525 157.819 200.762L151.922 204.514C126.19 165.38 127.262 155.731 132.087 151.442C135.304 148.762 139.056 150.37 142.809 151.978C146.561 153.587 151.921 156.267 159.427 156.267C166.932 156.267 172.83 154.123 176.582 152.515C180.335 150.906 184.087 149.298 187.304 151.978C191.592 155.731 193.2 162.7 165.324 205.587Z" fill="#36A9E1"/>
<path d="M162.644 205.585L155.139 200.76L148.17 205.049L147.098 203.441C120.83 163.235 121.901 153.049 127.262 147.688C131.015 143.936 136.376 146.08 140.129 147.688C143.881 149.296 149.242 151.977 155.675 151.977C162.644 151.977 168.005 149.833 172.294 148.224C176.582 146.616 180.87 144.472 185.159 147.688C189.984 151.977 192.128 158.946 163.716 203.441L162.644 205.585ZM158.892 198.616L161.035 200.224C185.695 162.162 185.695 154.121 182.479 151.441C180.334 149.833 178.191 150.905 173.902 152.513C169.613 154.121 163.716 156.802 155.675 156.802C148.169 156.802 142.273 154.121 138.52 152.513C134.232 150.369 132.087 149.833 129.942 151.441C126.726 154.657 125.118 163.235 149.242 200.224L151.386 198.616C135.839 175.028 128.871 160.018 131.016 154.657L131.551 153.049L133.696 153.585C134.768 153.585 135.84 154.657 136.912 155.193C141.2 157.338 147.097 160.018 155.675 160.018C164.252 160.018 170.685 157.338 174.974 155.729C176.046 155.193 177.118 154.657 178.19 154.657L180.87 153.585V156.802C180.87 161.626 172.83 176.637 158.892 198.616ZM135.303 157.874C135.839 162.162 139.592 172.348 155.675 196.472C170.149 173.956 174.974 163.771 176.582 158.41C171.758 160.554 165.325 163.235 156.211 162.698C146.562 163.235 140.128 160.018 135.303 157.874Z" fill="#16110D"/>
<path d="M156.211 261.874C151.386 261.874 147.098 258.657 147.098 254.368V205.049C147.098 200.76 151.386 197.544 156.211 197.544C161.035 197.544 165.324 200.76 165.324 205.049V254.368C165.324 258.657 161.035 261.874 156.211 261.874Z" fill="white"/>
<path d="M161.571 262.946C156.747 262.946 152.458 259.73 152.458 255.441V206.122C152.458 201.833 156.747 198.617 161.571 198.617C166.396 198.617 170.684 201.833 170.684 206.122V255.441C170.684 259.73 166.932 262.946 161.571 262.946Z" fill="#36A9E1"/>
<path d="M156.211 264.018C150.314 264.018 144.952 259.73 144.952 254.369V205.049C144.952 199.689 149.778 195.4 156.211 195.4C162.644 195.4 167.468 199.689 167.468 205.049V254.369C167.468 259.73 162.107 264.018 156.211 264.018ZM156.211 199.689C152.458 199.689 149.241 202.369 149.241 205.585V254.905C149.241 258.121 152.458 260.802 156.211 260.802C159.963 260.802 163.18 258.121 163.18 254.905V205.585C163.18 202.369 159.963 199.689 156.211 199.689Z" fill="#16110D"/>
<path d="M51.1391 112.845C46.3144 111.773 43.6348 106.412 45.243 102.123C50.6038 88.1854 65.078 61.9175 96.1707 48.5154C100.459 46.3711 105.819 49.0515 107.428 53.3402C108.5 57.0927 106.891 61.9174 103.139 63.5257C77.4068 74.7834 65.6141 96.7627 61.3254 108.02C59.1811 111.773 54.8917 113.917 51.1391 112.845Z" fill="white"/>
<path d="M51.139 107.484C50.0668 107.484 49.5307 107.484 48.4586 106.948C45.7782 106.412 43.098 104.267 42.0259 101.587C40.9537 98.9066 40.4171 95.6901 41.4893 93.0097C47.3862 78.5355 61.8614 52.2676 93.4901 38.3295C96.1705 37.2574 98.8509 37.2574 101.531 38.3295C104.212 39.4017 106.356 41.546 106.892 44.7625C108.5 49.5872 106.356 55.4841 100.995 57.0923C76.335 67.8139 64.5407 88.7211 60.2521 100.515C59.1799 105.34 54.8916 107.484 51.139 107.484ZM97.2424 42.0821C96.1703 42.0821 95.6334 42.0821 95.0973 42.6182C65.0768 55.4841 51.1398 81.216 45.2429 95.154C44.7068 96.7623 44.7068 98.3705 45.2429 99.9788C46.315 101.587 47.3869 102.659 48.9952 103.195C52.2117 103.731 54.8923 102.659 55.9645 99.4427C60.7892 87.1128 72.583 65.1335 98.8509 53.8758C101.531 52.8037 103.139 49.5872 102.067 46.3707C101.531 44.7625 100.459 43.1542 98.8509 42.6182C98.8509 42.6182 98.3146 42.0821 97.2424 42.0821Z" fill="#16110D"/>
<path d="M10.3971 109.63C5.57241 108.558 2.89148 103.197 4.49972 98.9081C11.4688 79.6093 33.9839 31.8981 88.6641 10.4549C92.9527 8.84662 98.3135 10.9909 99.3857 15.2796C100.458 19.5682 98.8501 23.8569 94.5615 25.4651C45.7782 44.764 25.9424 87.6505 20.0455 104.269C18.4373 108.558 14.1497 110.702 10.3971 109.63Z" fill="white"/>
<path d="M10.3973 104.804C9.32511 104.804 8.78903 104.804 7.71687 104.268C5.03647 103.732 2.35502 101.587 1.28286 98.9068C-0.325383 96.2264 -0.324597 93.546 0.747564 90.3295C7.71661 70.4946 30.2315 22.7834 85.9838 0.804121C88.6642 -0.26804 91.8807 -0.26804 94.025 0.804121C96.7054 1.87628 98.3137 4.02061 99.3858 6.70101C100.994 12.0618 98.3145 17.4226 93.4897 19.5669C45.7786 38.3298 25.9426 80.144 20.0457 97.2986C18.4374 102.123 14.1498 104.804 10.3973 104.804ZM89.2008 4.55668C88.6647 4.55668 87.5918 4.55668 87.0557 5.09276C32.9116 26.536 11.4689 73.175 4.49986 91.9378C3.96378 93.546 3.96431 95.1543 5.03647 96.7625C6.10863 98.3708 7.18053 99.4429 8.78877 99.979C12.0053 100.515 15.2212 98.9068 16.2934 96.2264C22.7263 78.5358 43.0971 35.6493 92.4165 16.3505C95.633 15.2783 96.7062 12.0618 96.1701 8.84533C95.6341 7.23709 94.5614 6.16492 92.9531 5.09276C91.3449 4.55668 90.273 4.55668 89.2008 4.55668Z" fill="#16110D"/>
<path d="M172.828 359.98C174.436 361.052 174.436 362.124 172.828 363.196C171.219 364.268 169.075 364.268 167.467 363.196C165.859 362.124 165.859 361.052 167.467 359.98C169.075 359.444 171.219 359.444 172.828 359.98Z" fill="#16110D"/>
<path d="M186.766 351.938C188.374 353.01 188.374 354.082 186.766 355.154C185.158 356.226 183.014 356.226 181.405 355.154C179.797 354.082 179.797 353.01 181.405 351.938C183.014 350.866 185.158 351.402 186.766 351.938Z" fill="#16110D"/>
<path d="M200.705 343.897C202.313 344.969 202.313 346.041 200.705 347.114C199.096 348.186 196.952 348.186 195.344 347.114C193.736 346.041 193.736 344.969 195.344 343.897C196.416 343.361 199.096 343.361 200.705 343.897Z" fill="#16110D"/>
<path d="M144.952 359.98C146.56 361.052 146.56 362.124 144.952 363.196C143.344 364.268 141.199 364.268 139.591 363.196C137.983 362.124 137.983 361.052 139.591 359.98C141.199 359.444 143.344 359.444 144.952 359.98Z" fill="#16110D"/>
<path d="M158.89 351.938C160.499 353.01 160.499 354.082 158.89 355.154C157.282 356.226 155.138 356.226 153.53 355.154C151.921 354.082 151.921 353.01 153.53 351.938C155.138 351.402 157.282 351.402 158.89 351.938Z" fill="#16110D"/>
<path d="M172.828 343.897C174.436 344.969 174.436 346.041 172.828 347.114C171.219 348.186 169.075 348.186 167.467 347.114C165.859 346.041 165.859 344.969 167.467 343.897C169.075 343.361 171.219 343.361 172.828 343.897Z" fill="#16110D"/>
<path d="M186.766 335.856C188.374 336.928 188.374 338 186.766 339.072C185.158 340.144 183.014 340.144 181.405 339.072C179.797 338 179.797 336.928 181.405 335.856C183.014 335.32 185.158 335.32 186.766 335.856Z" fill="#16110D"/>
<path d="M200.705 327.814C202.313 328.886 202.313 329.958 200.705 331.031C199.096 332.103 196.952 332.103 195.344 331.031C193.736 329.958 193.736 328.886 195.344 327.814C196.416 327.278 199.096 327.278 200.705 327.814Z" fill="#16110D"/>
<path d="M128.334 355.691C130.407 355.691 132.087 354.731 132.087 353.547C132.087 352.362 130.407 351.402 128.334 351.402C126.262 351.402 124.581 352.362 124.581 353.547C124.581 354.731 126.262 355.691 128.334 355.691Z" fill="#16110D"/>
<path d="M144.952 343.897C146.56 344.969 146.56 346.041 144.952 347.114C143.344 348.186 141.199 348.186 139.591 347.114C137.983 346.041 137.983 344.969 139.591 343.897C141.199 343.361 143.344 343.361 144.952 343.897Z" fill="#16110D"/>
<path d="M117.076 343.897C118.684 344.969 118.684 346.041 117.076 347.114C115.468 348.186 113.323 348.186 111.715 347.114C110.107 346.041 110.107 344.969 111.715 343.897C113.323 343.361 116.004 343.361 117.076 343.897Z" fill="#16110D"/>
<path d="M131.014 335.856C132.623 336.928 132.623 338 131.014 339.072C129.406 340.144 127.262 340.144 125.654 339.072C124.045 338 124.045 336.928 125.654 335.856C127.262 335.32 129.406 335.32 131.014 335.856Z" fill="#16110D"/>
<path d="M117.076 327.814C118.684 328.886 118.684 329.958 117.076 331.031C115.468 332.103 113.323 332.103 111.715 331.031C110.107 329.958 110.107 328.886 111.715 327.814C113.323 327.278 115.468 327.278 117.076 327.814Z" fill="#16110D"/>
</svg>
