<svg width="618" height="728" viewBox="0 0 618 728" fill="none" xmlns="http://www.w3.org/2000/svg">
<path d="M507.914 9.49652L414.854 174.729L392.064 159.537L393.96 157.638L236.327 62.676C234.428 60.7768 232.525 64.5743 232.525 66.4736L278.11 146.241V148.142L253.419 322.87C251.519 332.367 247.722 341.863 240.125 349.46L211.636 381.746L213.533 379.847L162.254 355.156L16.0143 484.305C14.115 486.205 14.115 488.103 16.0143 488.103L101.48 539.384C103.379 541.283 105.279 541.282 107.178 541.282L211.636 543.181L183.148 662.834C183.148 664.733 183.145 666.632 185.044 666.632L264.816 714.112L270.51 717.912C278.107 723.61 293.305 716.013 302.801 698.92L405.358 524.189C411.055 514.693 418.654 508.995 426.251 505.197L568.694 453.918C587.686 448.22 600.977 417.831 593.38 402.637L528.808 294.382C525.009 288.684 525.009 279.187 528.808 269.691L599.079 85.4659C604.776 72.1713 602.878 62.6746 595.281 58.8762L507.914 5.69897C511.713 7.59821 509.814 7.59728 507.914 9.49652Z" fill="#36A9E1"/>
<path d="M325.591 651.439L319.892 647.639L240.125 600.158C238.226 600.158 238.224 598.26 238.224 596.361L266.713 476.708L162.255 474.809C160.356 474.809 158.455 474.81 156.556 472.91L82.4878 427.328L17.9156 484.305C16.0164 486.205 16.0164 488.103 17.9156 488.103L103.381 539.384C105.28 541.283 107.176 541.283 109.075 541.283L213.533 543.181L185.045 662.834C185.045 664.733 185.047 666.632 186.946 666.632L266.713 714.113L272.411 717.912C280.008 723.61 295.201 716.013 304.697 698.92L333.186 651.439C331.287 651.439 329.389 651.439 325.591 651.439Z" fill="white"/>
<path d="M481.326 440.622C473.729 442.521 466.13 450.118 460.433 459.614L431.944 507.095L568.693 457.715C587.685 452.018 600.976 421.631 593.379 406.437L589.582 400.738L481.326 440.622Z" fill="#36A9E1"/>
<path d="M597.182 442.523C591.484 452.019 581.985 459.616 574.388 463.414L431.945 514.692C426.247 516.592 420.551 522.29 414.854 529.887L312.297 704.616C300.901 723.608 283.805 731.205 270.51 725.507L185.044 674.229C181.246 672.329 179.347 666.632 181.247 662.834L207.839 550.778L110.976 548.88C107.177 548.88 105.278 548.88 101.48 546.981L16.0141 495.7C14.1149 493.801 12.2166 491.901 12.2166 488.103C12.2166 486.203 12.2156 482.407 16.0141 480.508L164.155 347.561L215.434 372.25L238.224 345.66C243.921 339.962 247.722 330.467 249.621 322.87L274.312 148.141L230.629 70.2708C228.729 66.4723 228.727 62.6743 232.525 58.8758C236.324 56.9766 240.124 55.0778 243.922 56.9771L409.155 155.736L407.259 157.637L418.651 163.334L507.914 3.79754C509.814 1.89831 511.714 1.07959e-10 513.613 1.07959e-10C515.512 1.07959e-10 519.313 -0.000463709 521.213 1.89877L608.575 55.0783C618.071 62.6752 619.971 75.9704 614.273 91.1642L544.003 275.389C542.103 282.986 540.204 290.583 544.003 294.382L608.575 402.637C612.373 410.234 612.373 419.73 608.575 431.126C600.978 434.924 599.081 438.724 597.182 442.523ZM403.456 522.29C409.154 512.794 418.654 505.197 426.251 501.399L568.694 450.118C576.291 446.319 585.784 436.825 589.582 425.429C591.482 417.832 591.482 412.134 589.582 408.336L525.01 300.08C521.212 292.483 521.212 281.086 525.01 269.691L595.281 85.4656C599.08 74.0702 597.18 68.3725 595.281 66.4733L511.717 17.0936L416.755 184.225L380.666 161.435L382.568 159.536L245.824 77.8682L283.808 146.24V150.04L259.117 324.769C257.218 334.265 251.519 345.66 243.922 355.156L215.434 387.445L211.636 383.645L209.735 387.445L162.254 364.652L23.6092 488.103L103.381 537.485H105.277L219.231 539.383L190.743 666.631L274.312 717.912C278.111 719.811 289.505 716.012 297.102 702.717L403.456 522.29Z" fill="black"/>
<path d="M21.7111 440.62L152.756 296.279C160.353 288.682 164.151 279.185 166.05 269.689L190.741 94.9602C194.54 72.1694 217.332 51.2774 230.627 58.8743L329.386 121.55C335.084 125.348 342.683 123.448 350.28 117.75L492.722 11.3934C511.715 -1.90123 525.009 11.3943 515.512 36.0844L445.242 220.309C441.443 229.805 441.443 239.303 445.242 245L509.814 353.256C517.411 366.55 504.115 396.94 485.123 404.537L342.68 455.815C335.083 457.714 327.489 465.311 321.791 474.807L219.23 649.536C205.935 672.327 183.144 676.126 181.245 657.133L164.154 505.195C164.154 497.598 158.454 491.901 152.756 491.901L23.6075 490.002C4.61516 488.103 4.61795 459.613 21.7111 440.62Z" fill="white"/>
<path d="M224.93 630.545L317.991 472.91C323.688 463.414 331.287 457.716 338.884 453.917L481.327 402.637C500.319 396.939 513.615 366.552 506.018 351.358L441.441 243.103C437.642 237.405 437.642 227.908 441.441 218.412L494.62 79.7666L399.659 150.04C392.062 155.737 384.468 157.636 378.77 153.837L329.388 121.551C327.489 121.551 325.588 121.552 323.689 119.652L274.312 87.364C261.017 85.4648 243.923 104.457 240.125 125.349L215.434 300.08C213.534 309.576 209.737 319.07 202.14 326.667L71.0899 471.011C67.2915 474.809 63.493 480.506 61.5938 484.305L143.262 486.204C148.96 486.204 154.659 491.903 154.659 499.5L156.556 518.492H196.441C202.139 518.492 207.839 524.189 207.839 531.786L224.93 630.545Z" fill="#36A9E1"/>
<path d="M507.911 389.343C502.214 398.84 492.719 406.436 485.122 410.235L342.679 461.515C336.981 463.415 329.386 469.111 325.588 476.708L223.026 651.439C213.53 666.633 198.338 676.128 186.942 674.229C179.346 672.33 173.647 666.631 171.748 657.135L154.656 505.196C154.656 501.398 152.756 497.599 148.958 497.599L19.8088 495.7C12.2119 495.7 6.51601 491.902 2.71753 484.305C-2.98017 471.011 2.71661 452.018 16.0113 438.723L147.057 294.382C152.754 288.684 156.555 279.189 158.454 271.592L183.145 96.8606C185.044 79.7675 198.339 62.6749 211.633 56.9772C219.23 53.1787 226.825 53.1787 232.522 56.9772L331.286 119.653C333.185 121.552 338.882 119.651 344.58 115.853L487.023 9.49626C496.519 1.89932 507.914 0.00100994 515.511 5.69872C525.007 11.3964 526.906 26.5889 519.309 39.8836L449.038 224.111C447.139 231.708 445.239 239.305 449.038 243.103L513.61 351.359C517.409 358.956 517.409 368.452 513.61 379.847C511.711 381.746 509.811 385.545 507.911 389.343ZM316.091 469.11C321.789 459.614 331.284 452.018 338.881 448.219L481.324 396.941C488.921 393.142 498.419 383.645 502.217 372.25C504.117 364.653 504.117 358.955 502.217 355.156L437.641 246.901C433.842 239.304 433.842 227.909 437.641 216.513L507.911 32.2862C511.71 20.8907 509.811 15.1935 507.911 11.395C506.012 9.4958 500.315 11.3964 494.618 15.1949L352.175 121.552C342.679 129.149 333.185 131.047 325.588 125.349L226.828 62.6758C224.929 60.7766 221.128 62.6758 219.229 62.6758C209.732 66.4743 200.239 79.7684 198.34 93.0631L173.649 267.792C171.75 277.288 166.051 288.683 158.454 298.179L27.4085 442.523C17.9123 453.918 14.1139 469.111 17.9123 474.809C19.8116 476.708 19.8079 478.607 23.6063 478.607L152.755 480.508C162.251 480.508 169.848 488.105 171.748 499.5L188.844 651.439C188.844 655.237 190.742 657.135 192.641 659.034C196.44 660.933 207.834 655.237 215.431 641.943L316.091 469.11C314.192 469.11 316.091 469.11 316.091 469.11Z" fill="black"/>
<path d="M504.116 381.746L593.379 434.925L597.182 414.034L528.807 284.885L437.643 229.807L447.139 252.599L507.914 353.257L513.612 366.553L504.116 381.746Z" fill="black"/>
<path d="M338.033 454.743L328.224 471.006L416.045 523.978L425.855 507.715L338.033 454.743Z" fill="black"/>
<path d="M225.83 631.599L216.022 647.863L303.843 700.824L313.651 684.561L225.83 631.599Z" fill="black"/>
<path d="M511.716 47.481L597.182 98.7594L606.678 75.9695L599.078 60.7747L517.41 11.395L511.716 47.481Z" fill="black"/>
</svg>
