<svg width="348" height="410" viewBox="0 0 348 410" fill="none" xmlns="http://www.w3.org/2000/svg">
<path d="M286.012 5.35302L233.555 98.492L220.709 89.9282L221.778 88.8579L132.923 35.3295C131.852 34.2589 130.779 36.3995 130.779 37.4701L156.475 82.4335V83.5051L142.557 181.997C141.486 187.35 139.345 192.703 135.063 196.985L119.005 215.184L120.074 214.114L91.1688 200.196L8.73554 272.995C7.66497 274.066 7.66497 275.136 8.73554 275.136L56.9111 304.042C57.9817 305.113 59.0528 305.112 60.1234 305.112L119.005 306.183L102.946 373.629C102.946 374.7 102.945 375.77 104.015 375.77L148.981 402.534L152.191 404.676C156.473 407.887 165.04 403.605 170.393 393.97L228.202 295.477C231.414 290.124 235.697 286.912 239.979 284.771L320.272 255.866C330.978 252.655 338.47 235.525 334.187 226.96L297.789 165.938C295.648 162.727 295.648 157.373 297.789 152.02L337.4 48.1758C340.611 40.6818 339.541 35.3287 335.259 33.1875L286.012 3.2124C288.153 4.28297 287.082 4.28245 286.012 5.35302Z" fill="#36A9E1"/>
<path d="M183.239 367.206L180.027 365.064L135.063 338.3C133.993 338.3 133.992 337.23 133.992 336.159L150.05 268.713L91.169 267.643C90.0984 267.643 89.0273 267.643 87.9568 266.572L46.2056 240.878L9.80732 272.995C8.73675 274.066 8.73675 275.136 9.80732 275.136L57.9829 304.042C59.0535 305.113 60.122 305.113 61.1925 305.113L120.074 306.183L104.015 373.629C104.015 374.7 104.016 375.77 105.087 375.77L150.05 402.534L153.263 404.676C157.545 407.888 166.109 403.605 171.462 393.97L187.52 367.206C186.45 367.206 185.38 367.206 183.239 367.206Z" fill="white"/>
<path d="M271.024 248.372C266.742 249.442 262.459 253.724 259.247 259.077L243.188 285.841L320.272 258.007C330.977 254.795 338.469 237.667 334.187 229.102L332.046 225.89L271.024 248.372Z" fill="#36A9E1"/>
<path d="M336.331 249.443C333.119 254.796 327.764 259.078 323.482 261.219L243.189 290.124C239.977 291.195 236.767 294.407 233.555 298.689L175.745 397.181C169.322 407.887 159.685 412.169 152.191 408.957L104.015 380.052C101.874 378.981 100.804 375.77 101.874 373.629L116.864 310.465L62.2638 309.395C60.1227 309.395 59.0521 309.395 56.911 308.324L8.73534 279.418C7.66477 278.348 6.59473 277.277 6.59473 275.136C6.59473 274.065 6.5942 271.925 8.73534 270.854L92.2403 195.915L121.145 209.831L133.991 194.843C137.203 191.631 139.345 186.279 140.416 181.997L154.334 83.5049L129.71 39.6105C128.64 37.4694 128.638 35.3285 130.779 33.1874C132.92 32.1168 135.062 31.0465 137.204 32.1171L230.343 87.7861L229.274 88.8577L235.695 92.0687L286.012 2.14062C287.082 1.07005 288.153 0 289.224 0C290.294 0 292.437 -0.000261385 293.508 1.07031L342.752 31.0468C348.105 35.329 349.176 42.8233 345.965 51.3878L306.354 155.233C305.284 159.515 304.213 163.797 306.354 165.938L342.752 226.96C344.894 231.242 344.894 236.595 342.752 243.019C338.47 245.16 337.401 247.302 336.331 249.443ZM227.13 294.406C230.342 289.054 235.697 284.772 239.979 282.63L320.272 253.724C324.554 251.583 329.906 246.231 332.047 239.808C333.117 235.525 333.117 232.313 332.047 230.172L295.648 169.15C293.507 164.868 293.507 158.444 295.648 152.02L335.259 48.1756C337.4 41.7522 336.329 38.5405 335.259 37.4699L288.155 9.63538L234.626 103.845L214.284 90.9984L215.356 89.9281L138.275 43.8931L159.687 82.4333V84.5752L145.769 183.067C144.698 188.42 141.486 194.843 137.204 200.196L121.145 218.396L119.004 216.254L117.933 218.396L91.1686 205.549L13.0166 275.136L57.9826 302.972H59.0516L123.286 304.042L107.227 375.769L154.334 404.676C156.475 405.746 162.898 403.605 167.18 396.111L227.13 294.406Z" fill="black"/>
<path d="M11.9467 248.371L85.8149 167.008C90.0972 162.725 92.2378 157.372 93.3084 152.019L107.226 53.5275C109.367 40.6807 122.215 28.9042 129.709 33.1864L185.378 68.5157C188.59 70.6569 192.873 69.5855 197.156 66.3738L277.448 6.4222C288.154 -1.07178 295.648 6.42273 290.295 20.3401L250.684 124.185C248.543 129.538 248.543 134.891 250.684 138.103L287.082 199.125C291.365 206.619 283.87 223.748 273.165 228.031L192.872 256.936C188.59 258.006 184.309 262.288 181.097 267.641L123.285 366.133C115.791 378.98 102.944 381.121 101.873 370.416L92.2394 284.77C92.2394 280.488 89.0266 277.277 85.8149 277.277L13.0157 276.206C2.31001 275.136 2.31158 259.076 11.9467 248.371Z" fill="white"/>
<path d="M126.498 355.428L178.955 266.572C182.166 261.219 186.45 258.007 190.732 255.866L271.025 226.96C281.73 223.748 289.225 206.62 284.942 198.055L248.542 137.033C246.4 133.821 246.4 128.468 248.542 123.115L278.518 44.9631L224.99 84.575C220.707 87.7867 216.427 88.8567 213.215 86.7156L185.379 68.5164C184.308 68.5164 183.237 68.5167 182.167 67.4461L154.334 49.2457C146.84 48.1751 137.204 58.8808 135.063 70.6571L121.145 169.15C120.074 174.503 117.934 179.855 113.651 184.137L39.7806 265.501C37.6394 267.643 35.4983 270.854 34.4277 272.995L80.4627 274.065C83.6744 274.065 86.8872 277.278 86.8872 281.56L87.9562 292.266H110.439C113.651 292.266 116.864 295.477 116.864 299.759L126.498 355.428Z" fill="#36A9E1"/>
<path d="M286.01 219.467C282.798 224.82 277.446 229.102 273.164 231.243L192.871 260.149C189.659 261.219 185.378 264.43 183.237 268.713L125.425 367.206C120.072 375.77 111.508 381.123 105.085 380.052C100.803 378.982 97.5904 375.77 96.5198 370.417L86.8857 284.771C86.8857 282.63 85.8146 280.489 83.6735 280.489L10.8743 279.418C6.59202 279.418 3.38136 277.277 1.24022 272.995C-1.97149 265.501 1.2397 254.795 8.73368 247.301L82.6019 165.938C85.8136 162.727 87.9558 157.374 89.0264 153.092L102.944 54.5989C104.015 44.9637 111.509 35.3289 119.003 32.1172C123.285 29.976 127.566 29.976 130.777 32.1172L186.449 67.4465C187.52 68.517 190.731 67.4457 193.943 65.3046L274.235 5.35295C279.588 1.07067 286.012 0.000628352 290.294 3.21234C295.647 6.42404 296.717 14.9878 292.434 22.4818L252.824 126.328C251.753 130.61 250.683 134.892 252.824 137.033L289.222 198.055C291.363 202.338 291.363 207.69 289.222 214.114C288.152 215.184 287.081 217.326 286.01 219.467ZM177.884 264.43C181.096 259.077 186.448 254.795 190.73 252.654L271.023 223.749C275.305 221.608 280.659 216.255 282.8 209.831C283.871 205.549 283.871 202.337 282.8 200.196L246.399 139.174C244.258 134.892 244.258 128.469 246.399 122.045L286.01 18.1993C288.151 11.7758 287.081 8.5644 286.01 6.42326C284.939 5.35269 281.728 6.42404 278.517 8.56518L198.224 68.5168C192.871 72.7991 187.519 73.8691 183.237 70.6574L127.568 35.3294C126.497 34.2588 124.355 35.3294 123.284 35.3294C117.931 37.4705 112.58 44.9643 111.509 52.4582L97.5914 150.95C96.5209 156.303 93.3086 162.726 89.0264 168.079L15.1581 249.443C9.80529 255.867 7.66415 264.431 9.80529 267.642C10.8759 268.713 10.8738 269.783 13.0149 269.783L85.8141 270.855C91.167 270.855 95.4492 275.137 96.5198 281.56L106.156 367.206C106.156 369.347 107.227 370.416 108.297 371.487C110.438 372.558 116.861 369.347 121.143 361.853L177.884 264.43C176.814 264.43 177.884 264.43 177.884 264.43Z" fill="black"/>
</svg>
