<svg width="546" height="579" viewBox="0 0 546 579" fill="none" xmlns="http://www.w3.org/2000/svg">
<path d="M503.727 513.916L397.649 400.102L415.327 385.737L416.433 386.842L530.248 287.392C531.353 286.287 530.247 284.078 529.142 284.078L455.108 299.547L454.002 298.442L322.508 235.458C315.878 232.143 309.247 225.513 304.827 218.883L287.149 189.047L288.252 191.258L320.299 157.003L255.103 10.0383C255.103 8.93332 252.895 8.93359 251.79 8.93359L189.909 63.0787C188.804 64.1837 187.699 65.2876 187.699 67.4976L160.074 149.268L72.7782 97.3333C71.6732 96.2283 70.5703 96.2283 69.4653 97.3333L12.0034 147.058L7.58446 151.478C2.05948 157.003 3.16555 169.158 14.2155 181.313L124.715 306.178C130.24 312.808 133.554 320.542 134.659 327.172L139.078 450.932C139.078 467.507 158.968 486.292 172.228 482.977L273.89 459.771C279.415 458.666 286.044 460.877 292.674 466.402L418.642 566.957C427.482 574.692 436.322 574.692 440.742 571.377L503.727 517.232C504.832 516.127 504.832 515.021 503.727 513.916Z" fill="#36A9E1"/>
<path d="M47.3654 211.147L51.7843 206.728L109.244 157.003C110.349 155.898 111.454 155.898 112.559 157.003L199.853 208.938L227.478 127.168C228.583 124.958 228.585 123.852 229.69 122.747L283.833 75.2334L255.102 10.0383C255.102 8.93332 252.895 8.93359 251.79 8.93359L189.909 63.0787C188.804 64.1837 187.699 65.2876 187.699 67.4976L160.074 149.268L72.7781 97.3333C71.6731 96.2283 70.5703 96.2283 69.4653 97.3333L12.0034 147.058L7.58446 151.478C2.05948 157.003 3.16555 169.158 14.2155 181.313L45.1532 215.567C45.1532 214.462 46.2604 212.252 47.3654 211.147Z" fill="white"/>
<path d="M174.442 385.737C174.442 379.107 171.125 371.372 164.495 364.742L134.661 330.487L139.08 449.827C139.08 466.402 158.969 485.186 172.229 481.871L176.651 480.766L174.442 385.737Z" fill="#36A9E1"/>
<path d="M143.501 474.137C136.871 467.507 133.555 458.667 133.555 450.932L129.136 327.172C129.136 321.647 125.821 316.122 121.402 309.492L10.9019 184.629C-1.25307 171.369 -3.46306 154.793 5.37691 147.058L67.2551 92.9134C70.5701 90.7034 73.8867 89.5986 77.2017 91.8086L158.97 140.429L184.386 65.2884C185.491 63.0785 186.595 60.8687 188.805 58.6587L250.686 4.51366C252.896 3.40866 255.107 2.30394 257.317 3.40893C259.527 3.40893 261.737 5.61919 262.842 7.82919L329.141 157.004L297.095 190.154L311.46 215.568C314.775 222.198 320.299 227.723 326.929 229.933L457.319 292.917L529.144 277.447C532.459 276.342 535.773 278.553 536.878 280.763C537.983 284.078 537.984 287.393 534.669 289.603L415.329 393.472L414.225 391.262L406.491 397.892L508.15 507.287C509.255 508.392 510.36 510.602 510.36 512.812C510.36 515.022 509.255 517.232 508.15 518.337L445.166 572.482C437.431 578.007 426.38 575.797 416.435 568.062L290.466 467.507C284.941 463.087 279.416 460.877 276.101 461.982L174.442 485.187C167.812 486.292 160.077 484.082 152.342 478.557C147.922 479.662 145.711 477.452 143.501 474.137ZM129.136 302.863C135.766 310.598 139.081 319.437 140.186 326.067L144.605 449.828C144.605 456.458 150.132 466.403 157.867 471.928C163.392 476.348 167.811 477.452 171.126 476.346L272.785 453.142C279.415 452.037 288.256 454.248 295.991 460.878L421.96 561.432C429.695 566.957 435.219 568.062 437.429 565.852L497.1 513.917L389.916 397.892L417.541 374.687L418.644 375.792L516.991 289.603L454.004 302.863L451.794 301.758L320.301 238.772C312.566 235.457 304.83 227.723 300.41 219.988L282.729 190.154L287.151 187.943L284.941 185.733L314.776 154.793L252.895 15.5636L194.33 66.3932C194.33 66.3932 193.226 67.499 193.226 68.604L163.392 157.004L71.6767 102.859L10.9019 155.898C7.5869 158.108 8.69028 169.158 17.5303 177.998L129.136 302.863Z" fill="black"/>
<path d="M288.253 24.4038L368.918 163.633C373.338 171.368 379.969 176.893 386.599 180.208L518.093 243.192C534.668 250.927 545.717 275.237 536.877 282.972L462.843 344.853C459.528 348.168 458.424 353.693 460.634 361.428L508.149 500.657C514.779 518.337 499.308 526.071 482.734 512.812L356.765 412.257C350.135 406.732 343.503 404.522 337.978 405.627L236.319 428.832C223.059 432.147 203.169 413.362 203.169 396.787L198.75 273.028C198.75 266.398 195.434 258.663 188.804 252.033L78.3039 127.168C63.939 110.593 66.1506 91.8074 82.7255 95.1224L206.485 119.433C213.115 120.538 217.534 118.328 219.744 112.803L252.894 12.2477C256.209 -1.01222 277.203 6.72383 288.253 24.4038Z" fill="white"/>
<path d="M89.3545 137.113L189.91 249.822C195.435 256.452 198.749 264.187 199.854 270.817L204.276 394.578C204.276 411.153 224.166 429.936 237.426 426.621L339.085 403.417C344.61 402.312 351.239 404.522 357.869 410.047L452.9 486.292L420.853 394.578C418.643 387.948 419.75 381.318 423.065 378.003L460.634 347.062C461.739 345.957 461.739 344.852 462.844 343.747L499.309 312.808C503.729 302.863 493.785 284.077 478.315 277.447L346.819 214.463C340.189 211.148 333.561 204.518 329.141 197.888L248.476 58.6586C246.266 54.2386 242.95 50.9236 239.635 47.6086L218.641 111.698C216.431 117.223 212.009 119.434 205.379 118.329L188.804 115.013L178.86 145.954C176.65 151.479 172.231 153.688 165.601 152.583L89.3545 137.113Z" fill="#36A9E1"/>
<path d="M207.591 418.887C200.961 412.257 197.645 403.417 197.645 395.682L193.226 271.922C193.226 266.397 189.911 259.767 185.491 254.242L74.9917 129.378C65.0468 118.328 61.7312 103.962 66.1512 95.1222C69.4662 89.5973 76.0946 86.2825 83.8296 88.4925L207.591 112.803C210.906 113.908 213.115 112.802 214.22 110.592L247.37 10.0381C249.58 4.51311 253.999 0.0928553 260.629 0.0928553C271.679 -1.01214 286.044 7.82783 293.779 22.1928L374.444 161.422C377.759 168.052 383.286 173.578 389.916 175.788L521.409 238.772C533.564 244.297 544.613 258.662 545.718 270.817C546.823 277.447 544.613 282.972 540.193 286.287L466.159 348.167C463.949 350.377 463.949 353.692 466.159 359.217L513.675 498.446C516.99 508.391 515.883 517.232 509.253 521.652C501.518 527.177 490.47 524.967 480.525 516.127L354.554 415.571C349.029 411.151 343.506 408.941 340.191 410.046L238.529 433.252C231.899 434.357 224.164 432.146 216.429 426.621C212.009 423.306 209.801 421.097 207.591 418.887ZM193.226 247.612C199.856 255.347 203.171 264.187 204.276 270.817L208.695 394.577C208.695 401.207 214.219 411.152 221.954 416.677C227.479 421.097 231.901 422.201 235.216 421.096L336.875 397.891C343.505 396.786 352.344 398.997 360.079 405.627L486.05 506.182C493.785 511.707 499.309 512.812 501.519 510.602C503.729 509.497 503.73 505.077 502.625 499.552L455.109 360.321C451.794 351.481 452.9 342.641 458.425 338.221L532.459 276.342C534.669 275.237 534.67 271.922 533.565 269.712C532.46 261.977 525.828 250.928 514.778 245.403L383.285 182.417C375.55 179.102 367.814 171.368 363.394 163.633L282.729 24.4036C276.099 13.3536 266.156 7.82864 259.526 7.82864C257.316 7.82864 256.21 8.93282 256.21 11.1428L223.06 111.697C220.85 119.432 213.116 122.747 204.276 121.642L80.5167 97.333C77.2017 96.2281 74.9907 97.3325 73.8857 99.5425C71.6757 102.857 72.7801 111.698 81.6201 120.538L193.226 247.612C192.121 247.612 192.121 247.612 193.226 247.612Z" fill="black"/>
<path d="M213.117 417.782L150.13 473.032L164.495 482.977L282.729 460.877L349.029 403.417L329.141 405.628L235.217 427.727L223.061 428.832L213.117 417.782Z" fill="black"/>
<path d="M192.641 257.808L129.414 313.083L136.687 321.402L199.914 266.128L192.641 257.808Z" fill="black"/>
<path d="M79.7857 127.988L16.5586 183.262L23.8317 191.582L87.0588 136.307L79.7857 127.988Z" fill="black"/>
<path d="M473.893 506.182L410.909 561.432L427.484 573.586L440.744 571.377L500.415 519.441L473.893 506.182Z" fill="black"/>
<path d="M268.124 462.839L166.562 484.62L168.415 493.263L269.978 471.482L268.124 462.839Z" fill="#36A9E1"/>
<path d="M431.904 578.007C423.064 578.007 417.539 573.586 415.329 569.166L421.96 564.746C423.065 565.851 427.486 572.482 439.641 568.062L442.954 575.796C438.534 576.901 435.219 578.007 431.904 578.007Z" fill="#36A9E1"/>
</svg>
