<svg width="91" height="176" viewBox="0 0 91 176" fill="none" xmlns="http://www.w3.org/2000/svg">
<path d="M15.6869 167.174H0.00439453V171.466C0.00439453 172.642 0.768834 173.783 2.29768 174.677C5.36714 176.441 10.33 176.441 13.3877 174.677C14.9166 173.783 15.6869 172.631 15.6869 171.466V167.203V167.174Z" fill="#16110D"/>
<path d="M13.3877 170.525C10.33 172.29 5.36715 172.29 2.29769 170.525C-0.771773 168.761 -0.760013 165.886 2.29769 164.11C5.35538 162.334 10.33 162.346 13.3877 164.11C16.4454 165.874 16.4513 168.761 13.3877 170.525Z" fill="#36A9E1"/>
<path d="M10.9003 29.207H4.78491V166.856C4.80963 167.126 4.90614 167.383 5.06439 167.603C5.22263 167.822 5.43679 167.995 5.68456 168.103C6.35529 168.439 7.09526 168.614 7.84556 168.614C8.59586 168.614 9.3358 168.439 10.0065 168.103C10.2528 167.993 10.4655 167.82 10.6226 167.601C10.7797 167.382 10.8755 167.125 10.9003 166.856V29.207Z" fill="#16110D"/>
<path d="M14.2522 25.5906C14.2529 26.4325 14.0877 27.2664 13.7658 28.0443C13.444 28.8223 12.9719 29.5291 12.3766 30.1245C11.7813 30.7198 11.0744 31.1919 10.2964 31.5137C9.51847 31.8356 8.68468 32.0008 7.84277 32C7.00135 32 6.16818 31.8342 5.39088 31.512C4.61359 31.1899 3.90738 30.7176 3.31268 30.1224C2.71798 29.5271 2.24643 28.8206 1.92497 28.043C1.6035 27.2654 1.43846 26.432 1.43923 25.5906C1.43691 24.7492 1.60045 23.9156 1.92048 23.1374C2.24051 22.3592 2.71078 21.6517 3.30439 21.0554C3.898 20.4591 4.6033 19.9856 5.38001 19.662C6.15671 19.3384 6.98958 19.171 7.831 19.1695C8.67489 19.1671 9.51093 19.3316 10.291 19.6535C11.0711 19.9754 11.7799 20.4483 12.3766 21.045C12.9733 21.6417 13.4462 22.3505 13.7681 23.1306C14.09 23.9107 14.2545 24.7467 14.2522 25.5906Z" fill="#36A9E1"/>
<path d="M90.1124 58.5667C63.7104 56.2675 37.3083 106.602 10.9004 104.303V45.8067C37.3083 48.1117 63.7104 -2.2227 90.1124 0.0764587V58.5667Z" fill="#E31B25"/>
<path d="M23.6133 50.2754C24.3777 51.7278 25.148 53.1449 25.9183 54.5385C27.6784 53.8993 29.3985 53.1551 31.0694 52.3099C29.8228 54.5385 28.5821 56.7142 27.3413 58.8134C27.6353 60.6245 27.9293 62.4239 28.2175 64.2291C26.6755 64.2128 25.1368 64.085 23.6133 63.8468C22.0766 65.4737 20.5419 66.9692 19.0091 68.3334C19.3031 66.2754 19.5952 64.2134 19.8853 62.1475C18.6445 61.142 17.3979 60.0424 16.1631 58.8428C17.94 58.2493 19.6616 57.5016 21.3083 56.6083C22.0805 54.5267 22.8489 52.4158 23.6133 50.2754Z" fill="#F49624"/>
<path d="M33.5156 42.249C33.6567 42.4725 33.7978 42.7018 33.9331 42.9311L34.8798 42.3843L34.1977 43.6603L34.3564 44.6246L33.5156 44.7304L32.6747 45.8477L32.8335 44.6717L32.1514 44.3835L33.0922 43.5603L33.5156 42.249Z" fill="#F49624"/>
<path d="M37.2319 44.1133L37.6552 44.766L38.5961 44.178C38.3668 44.6131 38.1433 45.0541 37.914 45.4951C37.9669 45.8127 38.0257 46.1302 38.0786 46.4477L37.2319 46.6124L36.391 47.7884L36.5498 46.5771L35.8677 46.3419L36.8144 45.4422C36.932 44.9894 37.0731 44.5543 37.2319 44.1133Z" fill="#F49624"/>
<path d="M37.2319 52.3101L37.6552 52.9569L38.5961 52.3689L37.914 53.6919C37.9669 54.0095 38.0257 54.327 38.0786 54.6504L37.2319 54.815C36.9496 55.2031 36.6439 55.5971 36.391 55.9911L36.5498 54.7797L35.8677 54.5387C36.1852 54.2505 36.4968 53.9506 36.8144 53.6508C36.932 53.1921 37.0731 52.7511 37.2319 52.3101Z" fill="#F49624"/>
<path d="M33.5156 59.8076L33.9331 60.4897L34.8798 59.9487L34.1977 61.2248L34.3564 62.1891L33.5156 62.3008L32.6747 63.4122C32.7276 63.0182 32.7806 62.6125 32.8335 62.2361C32.6042 62.1479 32.3748 62.048 32.1514 61.9539L33.0922 61.1307L33.5156 59.8076Z" fill="#F49624"/>
</svg>
